<svg width="16" height="16" viewBox="0 0 16 16" fill="none" xmlns="http://www.w3.org/2000/svg">
<g id="icon/Control">
<path id="Vector" d="M10.814 13.7722C10.9312 13.6319 10.9954 13.455 10.9954 13.2722C10.9954 13.0894 10.9312 12.9125 10.814 12.7722L6.50403 7.97219L10.824 3.19219C10.947 3.05468 11.015 2.87667 11.015 2.69219C11.015 2.5077 10.947 2.32969 10.824 2.19219C10.7705 2.13044 10.7045 2.0807 10.6304 2.04623C10.5563 2.01176 10.4758 1.99335 10.394 1.99219C10.3137 1.99281 10.2344 2.01104 10.1618 2.0456C10.0893 2.08015 10.0252 2.13019 9.97403 2.19219L5.21403 7.49219C5.09306 7.63067 5.02639 7.80831 5.02639 7.99219C5.02639 8.17607 5.09306 8.35371 5.21403 8.49219L9.96403 13.7922C10.0166 13.8552 10.0823 13.9059 10.1566 13.9406C10.231 13.9754 10.312 13.9934 10.394 13.9934C10.4761 13.9934 10.5571 13.9754 10.6314 13.9406C10.7057 13.9059 10.7715 13.8552 10.824 13.7922L10.814 13.7722Z" fill="white"/>
</g>
</svg>
