<svg width="24" height="24" viewBox="0 0 24 24" fill="none" xmlns="http://www.w3.org/2000/svg">
<path d="M18.984 15.2243C17.8172 14.2426 16.6332 13.6479 15.4808 14.6281L14.7927 15.2206C14.2892 15.6506 13.3531 17.66 9.73382 13.5641C6.11531 9.47342 8.26863 8.83649 8.77286 8.41014L9.46475 7.81697C10.6111 6.83451 10.1785 5.59774 9.3517 4.32463L8.85275 3.55349C8.02217 2.28335 7.11773 1.44919 5.96834 2.43016L5.3473 2.96402C4.8393 3.32809 3.41933 4.51148 3.07489 6.75962C2.66036 9.4571 3.96803 12.5461 6.96398 15.9354C9.95617 19.3261 12.8858 21.0293 15.6609 20.9996C17.9672 20.9751 19.3601 19.7577 19.7957 19.315L20.419 18.7804C21.5654 17.8002 20.8531 16.8021 19.6857 15.8182L18.984 15.2243Z" fill="white"/>
</svg>
