<svg width="68" height="68" viewBox="0 0 68 68" fill="none" xmlns="http://www.w3.org/2000/svg">
<g id="Frame 123">
<g id="logo">
<path id="&#208;&#189;&#208;&#184;&#208;&#182;&#208;&#189;&#208;&#184;&#208;&#185;" d="M10 23C10 17.4771 14.4772 13 20 13H48C53.5229 13 58 17.4772 58 23V51.466C58 56.9889 53.5228 61.466 48 61.466H41.9573C39.7175 61.466 37.5425 62.218 35.781 63.6014L34 65L32.219 63.6014C30.4575 62.218 28.2825 61.466 26.0427 61.466H20C14.4772 61.466 10 56.9889 10 51.466V23Z" fill="#398263"/>
<g id="&#208;&#188;&#208;&#176;&#209;&#129;&#208;&#186;&#208;&#176;-&#208;&#191;&#208;&#181;&#208;&#187;&#208;&#184;&#208;&#186;&#208;&#176;&#208;&#189; &#208;&#189;&#208;&#190;&#208;&#179;&#208;&#184;">
<mask id="mask0_310_8012" style="mask-type:alpha" maskUnits="userSpaceOnUse" x="8" y="11" width="50" height="52">
<path id="Rectangle 64" d="M8.51495 21.6968C8.51495 16.1739 12.9921 11.6968 18.515 11.6968H47.3703C52.8932 11.6968 57.3703 16.1739 57.3703 21.6968V50.5522C57.3703 56.075 52.8932 60.5522 47.3703 60.5522H39.299C38.1478 60.5522 37.0295 60.9359 36.1208 61.6426C34.2515 63.0966 31.6338 63.0966 29.7645 61.6426C28.8558 60.9359 27.7375 60.5522 26.5863 60.5522H18.515C12.9921 60.5522 8.51495 56.075 8.51495 50.5522V21.6968Z" fill="#FFCC01"/>
</mask>
<g mask="url(#mask0_310_8012)">
<g id="&#208;&#189;&#208;&#190;&#208;&#179;&#208;&#184;">
<path id="Vector" d="M36.2188 68.5142H28.2956C28.149 68.5142 28.0043 68.4817 27.8719 68.419C27.7394 68.3563 27.6225 68.265 27.5296 68.1517C27.4367 68.0384 27.3701 67.9059 27.3346 67.7637C27.2991 67.6215 27.2956 67.4732 27.3243 67.3295L29.3052 52.3364L31.2476 52.7249L29.5037 66.5334H36.2188V68.5142Z" fill="#EDB04E"/>
<path id="Vector_2" d="M31.2667 64.4429H23.3435C23.197 64.4429 23.0523 64.4104 22.9198 64.3477C22.7874 64.285 22.6705 64.1937 22.5776 64.0804C22.4847 63.9671 22.4181 63.8346 22.3826 63.6924C22.3471 63.5502 22.3436 63.4019 22.3723 63.2583L24.3531 52.3364L26.2955 52.7249L24.5517 62.4621H31.2667V64.4429Z" fill="#F5BB60"/>
</g>
</g>
</g>
<path id="&#208;&#189;&#208;&#184;&#208;&#182;&#208;&#189;&#208;&#184;&#208;&#185; &#208;&#190;&#208;&#177;&#208;&#178;&#208;&#190;&#208;&#180;&#208;&#186;&#208;&#176;" fill-rule="evenodd" clip-rule="evenodd" d="M48 15.0385H20C15.5817 15.0385 12 18.6891 12 23.1923V51.7308C12 56.234 15.5817 59.8846 20 59.8846H27L34 63.9615L41 59.8846H48C52.4183 59.8846 56 56.234 56 51.7308V23.1923C56 18.6891 52.4183 15.0385 48 15.0385ZM20 13C14.4772 13 10 17.5633 10 23.1923V51.7308C10 57.3598 14.4772 61.9231 20 61.9231H27L34 66L41 61.9231H48C53.5228 61.9231 58 57.3598 58 51.7308V23.1923C58 17.5633 53.5229 13 48 13H20Z" fill="#316C53"/>
<path id="Rectangle 111" d="M10 23C10 17.4772 14.4772 13 20 13H48C53.5229 13 58 17.4772 58 23V45H10V23Z" fill="#D0525A"/>
<g id="Subtract">
<mask id="path-7-inside-1_310_8012" fill="white">
<path fill-rule="evenodd" clip-rule="evenodd" d="M20 15H48C52.4183 15 56 18.5817 56 23V45H58V23C58 17.4772 53.5229 13 48 13H20C14.4772 13 10 17.4772 10 23V45H12V23C12 18.5817 15.5817 15 20 15Z"/>
</mask>
<path fill-rule="evenodd" clip-rule="evenodd" d="M20 15H48C52.4183 15 56 18.5817 56 23V45H58V23C58 17.4772 53.5229 13 48 13H20C14.4772 13 10 17.4772 10 23V45H12V23C12 18.5817 15.5817 15 20 15Z" fill="#D0525A"/>
<path d="M56 45H54V47H56V45ZM58 45V47H60V45H58ZM10 45H8V47H10V45ZM12 45V47H14V45H12ZM48 13H20V17H48V13ZM58 23C58 17.4772 53.5229 13 48 13V17C51.3137 17 54 19.6863 54 23H58ZM58 45V23H54V45H58ZM56 47H58V43H56V47ZM56 23V45H60V23H56ZM48 15C52.4183 15 56 18.5817 56 23H60C60 16.3726 54.6274 11 48 11V15ZM20 15H48V11H20V15ZM12 23C12 18.5817 15.5817 15 20 15V11C13.3726 11 8 16.3726 8 23H12ZM12 45V23H8V45H12ZM10 47H12V43H10V47ZM10 23V45H14V23H10ZM20 13C14.4772 13 10 17.4772 10 23H14C14 19.6863 16.6863 17 20 17V13Z" fill="black" fill-opacity="0.3" mask="url(#path-7-inside-1_310_8012)"/>
</g>
<g id="&#208;&#191;&#208;&#181;&#208;&#187;&#208;&#184;&#208;&#186;&#208;&#176;&#208;&#189;">
<path id="Vector_3" d="M31.2667 18.7403C31.2667 18.2533 31.4602 17.7862 31.8046 17.4419C32.1489 17.0975 32.616 16.904 33.103 16.904H41.1707V10.9616L39.5727 9.36359C38.0593 7.85022 36.0068 7.00002 33.8665 7C31.0756 7 28.3991 8.10867 26.4256 10.0821C24.4522 12.0556 23.3435 14.7321 23.3435 17.523C23.3435 19.4302 23.8619 21.3016 24.8431 22.9371C25.8244 24.5725 27.2317 25.9105 28.9145 26.808L37.2273 31.2415C37.521 31.3982 37.7666 31.6317 37.9378 31.9171C38.1091 32.2024 38.1995 32.529 38.1995 32.8618V32.8949C38.1995 33.3819 38.0061 33.849 37.6617 34.1934C37.3173 34.5378 36.8502 34.7312 36.3632 34.7312H28.2955C23.3048 34.7312 18.5184 36.7138 14.9895 40.2428C11.4605 43.7718 9.47791 48.5581 9.47791 53.5488H31.1985C33.2884 53.5488 35.3579 53.1372 37.2888 52.3374C39.2196 51.5376 40.974 50.3654 42.4519 48.8876C43.9297 47.4097 45.1019 45.6553 45.9017 43.7245C46.7015 41.7936 47.1131 39.7242 47.1131 37.6342C47.1131 34.6787 46.2901 31.7815 44.7363 29.2674C43.1825 26.7532 40.9593 24.7215 38.3158 23.3997L32.2819 20.3828C31.9769 20.2303 31.7203 19.9958 31.541 19.7057C31.3617 19.4157 31.2667 19.0814 31.2667 18.7403Z" fill="#E8E8E8"/>
<path id="Vector_4" d="M35.9712 14.3444C35.6454 14.3446 35.3245 14.2644 35.0371 14.1109C34.7497 13.9574 34.5045 13.7353 34.3235 13.4645C34.1424 13.1936 34.0309 12.8822 33.9989 12.5579C33.967 12.2336 34.0155 11.9065 34.1402 11.6055C34.2649 11.3044 34.462 11.0388 34.7139 10.8321C34.9659 10.6255 35.2649 10.4842 35.5845 10.4207C35.9041 10.3573 36.2344 10.3737 36.5462 10.4684C36.8579 10.5632 37.1415 10.7334 37.3718 10.9639C37.6489 11.2408 37.8377 11.5937 37.9143 11.9779C37.9908 12.3622 37.9516 12.7604 37.8016 13.1224C37.6517 13.4843 37.3977 13.7936 37.0719 14.0112C36.746 14.2287 36.363 14.3447 35.9712 14.3444Z" fill="#3D5671"/>
<path id="Vector_5" d="M33.981 50.2765L33.5554 48.3418C35.7022 47.8596 37.6558 46.7464 39.1652 45.1455C40.6745 43.5445 41.6708 41.5289 42.0259 39.3574L43.982 39.6669C43.5628 42.2309 42.3866 44.6111 40.6045 46.5016C38.8225 48.3921 36.5159 49.7067 33.981 50.2765Z" fill="#D7D7D7"/>
<path id="Vector_6" d="M31.5602 36.4667C31.5617 37.3962 31.3789 38.3167 31.0223 39.175C30.6657 40.0333 30.1425 40.8123 29.4828 41.467C28.2108 42.7389 26.8181 43.8841 25.3243 44.8864C24.6806 45.3185 24.0203 45.7225 23.3435 46.0984C22.419 46.6121 21.4658 47.0725 20.4887 47.4775C20.4503 47.4936 20.4107 47.5097 20.3723 47.5246C19.7224 47.7907 19.0621 48.0317 18.3915 48.2476C17.4164 48.5624 16.4244 48.8228 15.4203 49.0275C14.7654 49.1612 14.1052 49.271 13.4395 49.3568C12.2589 49.51 11.0696 49.5869 9.87905 49.5871H7.49713C7.49716 47.3988 7.94596 45.2337 8.8158 43.2258C9.68565 41.2178 10.958 39.4095 12.5544 37.9127L19.6246 31.2845C20.6339 30.3386 21.8979 29.7087 23.2608 29.4724C24.6237 29.2361 26.026 29.4037 27.2948 29.9546C28.5636 30.5055 29.6436 31.4156 30.4015 32.5727C31.1594 33.7299 31.5621 35.0835 31.5602 36.4667Z" fill="#3D5671"/>
<g id="Group">
<path id="Vector_7" d="M15.4204 42.6543V49.0275C14.7655 49.1613 14.1052 49.271 13.4396 49.3569V42.6543H15.4204ZM20.3724 39.6831V47.5246C19.7224 47.7908 19.0622 48.0318 18.3916 48.2476V39.6831H20.3724ZM25.3244 36.7119V44.8864C24.6806 45.3185 24.0204 45.7225 23.3436 46.0984V36.7119H25.3244Z" fill="#28425C"/>
</g>
<path id="Vector_8" d="M64.9404 16.9038V19.8069C64.9397 23.0802 63.971 26.2801 62.1561 29.0041C61.2212 30.4064 59.9665 31.5666 58.4952 32.3888C57.024 33.2111 55.3784 33.672 53.6941 33.7336C52.0098 33.7951 50.335 33.4555 48.8077 32.7428C47.2804 32.0301 45.9443 30.9646 44.9095 29.6342L44.6632 29.3173C42.3999 26.4069 41.1711 22.8253 41.1708 19.1384V10.9614L61.9927 13.5637C62.8068 13.6653 63.5557 14.0609 64.0986 14.676C64.6414 15.2911 64.9408 16.0834 64.9404 16.9038Z" fill="#F5BB60"/>
<path id="Vector_9" d="M64.9404 16.904V17.8944H41.1708V15.9136H64.7918C64.8906 16.2344 64.9407 16.5683 64.9404 16.904Z" fill="#E8AB4A"/>
</g>
</g>
</g>
</svg>
