<svg width="24" height="24" viewBox="0 0 24 24" fill="none" xmlns="http://www.w3.org/2000/svg">
<g id="map">
<path id="Vector" d="M12.5 1C8.36448 1 5 4.41177 5 8.60537C5 13.8098 11.7118 21.4501 11.9975 21.7728C12.2659 22.076 12.7346 22.0755 13.0025 21.7728C13.2882 21.4501 20 13.8098 20 8.60537C19.9999 4.41177 16.6355 1 12.5 1ZM12.5 12.4318C10.4193 12.4318 8.7266 10.7153 8.7266 8.60537C8.7266 6.49544 10.4194 4.77894 12.5 4.77894C14.5806 4.77894 16.2734 6.49548 16.2734 8.60541C16.2734 10.7153 14.5806 12.4318 12.5 12.4318Z" fill="white"/>
</g>
</svg>
