<svg width="24" height="24" viewBox="0 0 24 24" fill="none" xmlns="http://www.w3.org/2000/svg">
<g id="icon/Fill">
<path id="Vector" d="M20.1938 8.70938C20.1364 8.57288 20.0399 8.45641 19.9164 8.37467C19.793 8.29292 19.6481 8.24954 19.5 8.25H4.50002C4.35196 8.24954 4.20706 8.29292 4.08361 8.37467C3.96015 8.45641 3.86365 8.57288 3.80627 8.70938C3.75224 8.84791 3.73853 8.99891 3.76674 9.14491C3.79494 9.29091 3.86391 9.42594 3.96565 9.53438L11.4657 17.0344C11.609 17.173 11.8006 17.2505 12 17.2505C12.1994 17.2505 12.391 17.173 12.5344 17.0344L20.0344 9.53438C20.1361 9.42594 20.2051 9.29091 20.2333 9.14491C20.2615 8.99891 20.2478 8.84791 20.1938 8.70938Z" fill="white"/>
</g>
</svg>
